<svg width="131" height="40" viewBox="0 0 131 40" fill="none" xmlns="http://www.w3.org/2000/svg">
<g clip-path="url(#clip0_367_9879)">
<path d="M73.717 29.1864H78.5913L81.5693 14.6324H85.2247L85.7637 11.9248H82.1785L82.3143 11.3157C82.5172 10.1676 82.9234 8.87858 84.7508 8.87858C85.8351 8.87858 86.8499 8.94618 87.8647 9.42009L88.4069 6.57729C87.2759 6.17825 86.0859 5.97213 84.8867 5.96753C80.9602 5.96753 78.2533 8.26945 77.2372 11.9248H75.5451L75.0035 14.6324H76.6957L73.717 29.1864Z" fill="#EA1D2C"/>
<path d="M89.1511 25.667C94.905 25.667 98.899 20.4541 98.899 16.1895C98.899 13.0081 95.988 11.6539 93.1452 11.6539C86.8479 11.6539 83.3973 17.2758 83.3973 21.1314C83.3973 24.3129 86.3759 25.667 89.1511 25.667ZM104.587 25.667C110.34 25.667 114.334 20.4541 114.334 16.1895C114.334 13.0081 111.356 11.6539 108.512 11.6539C102.217 11.6539 98.7651 17.2726 98.7651 21.1314C98.7651 24.3129 101.811 25.667 104.587 25.667ZM122.254 25.3959H127.06L130.986 6.24133H126.112L124.961 11.9276L122.93 11.7247C118.191 11.7247 113.859 17.8166 113.859 22.1494C113.859 23.9092 115.007 25.6696 116.973 25.6696C119.748 25.6696 121.712 24.3155 122.522 22.9614H122.793L122.254 25.3959ZM107.225 35.4826C103.442 38.617 98.5832 40.1476 93.6867 39.7471C87.2555 39.3408 82.6523 34.3989 81.8403 29.1866H82.1108C83.6001 32.4395 87.1879 35.4826 91.5883 35.9558C96.0531 36.4973 101.404 34.4671 104.314 31.6913L101.065 29.1866H110.881L108.712 39.6119L107.29 35.5502L107.225 35.4826Z" fill="#EA1D2C"/>
</g>
<path d="M8.26889 26.0723C8.24442 26.1982 8.1868 26.3061 8.09603 26.396C8.00876 26.468 7.89184 26.5039 7.74526 26.5039H3.78776C3.65951 26.5039 3.55657 26.468 3.47895 26.396C3.42314 26.3061 3.40747 26.1982 3.43194 26.0723L7.05026 7.45768C7.07823 7.31379 7.13585 7.20588 7.22312 7.13394C7.32871 7.062 7.44563 7.02603 7.57388 7.02603H20.848C20.9946 7.02603 21.0975 7.062 21.1568 7.13394C21.2161 7.20588 21.2318 7.31379 21.2038 7.45768L20.5011 11.0727C20.4767 11.1986 20.419 11.3065 20.3283 11.3964C20.241 11.4684 20.1241 11.5043 19.9775 11.5043H11.1006L10.3402 15.4161H17.898C18.0445 15.4161 18.1475 15.4521 18.2068 15.524C18.2661 15.5959 18.2818 15.7039 18.2538 15.8477L17.5511 19.4628C17.5266 19.5886 17.469 19.6966 17.3782 19.7865C17.291 19.8584 17.174 19.8944 17.0275 19.8944H9.46975L8.26889 26.0723ZM27.2068 26.9086C25.3379 26.9086 23.8156 26.5399 22.6398 25.8025C21.4674 25.0471 20.7192 23.995 20.3951 22.6461C20.3795 22.5382 20.3751 22.4663 20.3821 22.4303C20.4101 22.2864 20.5244 22.1695 20.7251 22.0796L24.2775 20.4879L24.5078 20.434C24.6544 20.434 24.7686 20.5059 24.8506 20.6498C25.1723 21.3512 25.5857 21.8638 26.0907 22.1875C26.6176 22.4932 27.2658 22.6461 28.0353 22.6461C28.8598 22.6461 29.5198 22.5022 30.0155 22.2145C30.533 21.9087 30.8389 21.5131 30.9333 21.0275C31.0382 20.4879 30.8857 20.0473 30.4757 19.7056C30.0658 19.3638 29.3723 19.0671 28.3952 18.8153C27.1424 18.4736 26.0725 18.0869 25.1853 17.6552C24.3017 17.2056 23.6105 16.5671 23.1117 15.7398C22.6164 14.8945 22.4964 13.8154 22.7516 12.5025C22.9579 11.4414 23.4324 10.4612 24.1752 9.56194C24.9362 8.66268 25.9171 7.95227 27.1178 7.4307C28.3403 6.89114 29.7028 6.62137 31.2052 6.62137C33.0373 6.62137 34.4899 6.97208 35.5628 7.6735C36.654 8.37492 37.3682 9.31914 37.7055 10.5062C37.7211 10.6141 37.7272 10.677 37.7237 10.695C37.6992 10.8209 37.5832 10.9468 37.3755 11.0727L33.8336 12.6104C33.7315 12.6644 33.6438 12.6913 33.5705 12.6913C33.4423 12.6913 33.3463 12.6194 33.2827 12.4755C32.9845 11.936 32.5942 11.5403 32.1118 11.2885C31.6512 11.0187 31.0728 10.8838 30.3766 10.8838C29.6621 10.8838 29.0862 11.0187 28.649 11.2885C28.2336 11.5403 27.9857 11.873 27.9053 12.2867C27.8179 12.7363 27.9312 13.096 28.2452 13.3658C28.5627 13.6176 29.1568 13.8604 30.0274 14.0942C31.4162 14.4899 32.5839 14.9395 33.5303 15.4431C34.4803 15.9287 35.2086 16.6121 35.7152 17.4934C36.2401 18.3747 36.3732 19.4807 36.1145 20.8116C35.8978 21.9267 35.3962 22.9519 34.6098 23.8871C33.8269 24.8043 32.7949 25.5417 31.514 26.0993C30.2548 26.6388 28.8191 26.9086 27.2068 26.9086ZM46.3441 26.1532C46.2254 26.387 46.0377 26.5039 45.7812 26.5039H41.1092C40.8527 26.5039 40.7214 26.378 40.7154 26.1262L40.1564 7.51163L40.1826 7.37674C40.228 7.14294 40.379 7.02603 40.6355 7.02603H44.8403C45.1152 7.02603 45.2556 7.15193 45.2616 7.40372L45.2979 20.0832L50.4053 9.64287C50.5241 9.40906 50.7117 9.29216 50.9682 9.29216H54.5409C54.7974 9.29216 54.9396 9.40906 54.9675 9.64287L56.0711 20.0832L61.1466 7.40372C61.2505 7.15193 61.4399 7.02603 61.7147 7.02603H65.5073C65.6539 7.02603 65.755 7.071 65.8109 7.16092C65.8667 7.25085 65.8623 7.36775 65.7977 7.51163L58.002 26.1262C57.8981 26.378 57.7179 26.5039 57.4614 26.5039H52.7893C52.5328 26.5039 52.3906 26.387 52.3628 26.1532L51.2917 16.2524L46.3441 26.1532Z" fill="#EA1D2C"/>
<defs>
<clipPath id="clip0_367_9879">
<rect width="57.6283" height="34.0325" fill="white" transform="translate(73.3008 5.96753)"/>
</clipPath>
</defs>
</svg>
